HIERARCHY
ROOT Hips
{
	OFFSET 0.000000 87.230942 0.000000
	CHANNELS 6 Xposition Yposition Zposition Xrotation Yrotation Zrotation
	JOINT Pelvis
	{
		OFFSET 0.000000 0.000000 0.000000
		CHANNELS 3 Xrotation Yrotation Zrotation
		JOINT LeftUpLeg
		{
			OFFSET 12.017000 -9.376404 -2.439400
			CHANNELS 3 Xrotation Yrotation Zrotation
			JOINT LeftLeg
			{
				OFFSET -0.007312 -32.846973 2.110600
				CHANNELS 3 Xrotation Yrotation Zrotation
				JOINT LeftFoot
				{
					OFFSET 0.007312 -32.065170 -0.570400
					CHANNELS 3 Xrotation Yrotation Zrotation
					JOINT LeftToeBase
					{
						OFFSET 0.728300 -11.045900 13.180700
						CHANNELS 3 Xrotation Yrotation Zrotation
						End Site
						{
							OFFSET 0.000000 17.212589 0.000000
						}
					}
				}
				JOINT LeftPantLeg
				{
					OFFSET 0.002788 -16.709013 -3.143600
					CHANNELS 3 Xrotation Yrotation Zrotation
					End Site
					{
						OFFSET -0.605125 24.528742 0.000000
					}
				}
			}
			JOINT Left_Butt
			{
				OFFSET -6.630234 1.326584 -3.183700
				CHANNELS 3 Xrotation Yrotation Zrotation
				End Site
				{
					OFFSET -0.498041 20.188049 0.000000
				}
			}
		}
		JOINT RightUpLeg
		{
			OFFSET -11.717000 -9.376404 -2.439400
			CHANNELS 3 Xrotation Yrotation Zrotation
			JOINT RightLeg
			{
				OFFSET -0.003241 -32.846912 2.110600
				CHANNELS 3 Xrotation Yrotation Zrotation
				JOINT RightFoot
				{
					OFFSET 0.003241 -32.065136 -0.570500
					CHANNELS 3 Xrotation Yrotation Zrotation
					JOINT RightToeBase
					{
						OFFSET -0.728300 -11.045901 13.180700
						CHANNELS 3 Xrotation Yrotation Zrotation
						End Site
						{
							OFFSET 0.000000 17.212593 0.000000
						}
					}
				}
				JOINT RightPantLeg
				{
					OFFSET 0.008142 -16.708982 -3.143700
					CHANNELS 3 Xrotation Yrotation Zrotation
					End Site
					{
						OFFSET 0.605088 24.528715 0.000000
					}
				}
			}
			JOINT Right_Butt
			{
				OFFSET 6.630732 1.326584 -3.183700
				CHANNELS 3 Xrotation Yrotation Zrotation
				End Site
				{
					OFFSET 0.498015 20.188240 0.000000
				}
			}
		}
	}
	JOINT Spine
	{
		OFFSET -0.062400 7.848404 3.918300
		CHANNELS 3 Xrotation Yrotation Zrotation
		JOINT Spine1
		{
			OFFSET -0.072800 11.422302 0.713400
			CHANNELS 3 Xrotation Yrotation Zrotation
			JOINT Spine2
			{
				OFFSET -0.083200 13.054001 -1.931600
				CHANNELS 3 Xrotation Yrotation Zrotation
				JOINT Neck
				{
					OFFSET -0.092200 14.121796 -5.138800
					CHANNELS 3 Xrotation Yrotation Zrotation
					JOINT Head
					{
						OFFSET 0.000200 10.447403 -0.842000
						CHANNELS 3 Xrotation Yrotation Zrotation
						JOINT Visor
						{
							OFFSET 0.457100 25.671204 16.550400
							CHANNELS 3 Xrotation Yrotation Zrotation
							End Site
							{
								OFFSET 0.000000 26.061493 0.000000
							}
						}
						JOINT HairMidA
						{
							OFFSET 0.459400 31.585403 8.437400
							CHANNELS 3 Xrotation Yrotation Zrotation
							End Site
							{
								OFFSET 0.000000 26.061493 0.000000
							}
						}
						JOINT HairMidB
						{
							OFFSET 0.464000 33.309204 -8.389700
							CHANNELS 3 Xrotation Yrotation Zrotation
							End Site
							{
								OFFSET 0.000000 26.061493 0.000000
							}
						}
						JOINT HairMidC
						{
							OFFSET 0.466600 27.991196 -17.375099
							CHANNELS 3 Xrotation Yrotation Zrotation
							End Site
							{
								OFFSET 0.000000 26.061493 0.000000
							}
						}
						JOINT HairMidD
						{
							OFFSET 0.467700 17.888092 -21.169500
							CHANNELS 3 Xrotation Yrotation Zrotation
							End Site
							{
								OFFSET 0.000000 26.061493 0.000000
							}
						}
						JOINT HairMidE
						{
							OFFSET 5.325700 3.514603 -14.369699
							CHANNELS 3 Xrotation Yrotation Zrotation
							End Site
							{
								OFFSET 0.000000 26.061493 0.000000
							}
						}
						JOINT HairMidF
						{
							OFFSET -4.394100 3.514603 -14.372400
							CHANNELS 3 Xrotation Yrotation Zrotation
							End Site
							{
								OFFSET 0.000000 26.061493 0.000000
							}
						}
						JOINT HairLeftA
						{
							OFFSET 15.319900 25.746506 2.623300
							CHANNELS 3 Xrotation Yrotation Zrotation
							End Site
							{
								OFFSET 0.000000 26.061493 0.000000
							}
						}
						JOINT HairLeftB
						{
							OFFSET 12.619500 29.289398 -8.731499
							CHANNELS 3 Xrotation Yrotation Zrotation
							End Site
							{
								OFFSET 0.000000 26.061493 0.000000
							}
						}
						JOINT HairLeftC
						{
							OFFSET 15.714800 15.959900 2.909800
							CHANNELS 3 Xrotation Yrotation Zrotation
							End Site
							{
								OFFSET 0.000000 26.061493 0.000000
							}
						}
						JOINT HairLeftD
						{
							OFFSET 16.101700 18.437408 -7.553200
							CHANNELS 3 Xrotation Yrotation Zrotation
							End Site
							{
								OFFSET 0.000000 26.061493 0.000000
							}
						}
						JOINT HairLeftE
						{
							OFFSET 9.731900 17.915009 -18.316799
							CHANNELS 3 Xrotation Yrotation Zrotation
							End Site
							{
								OFFSET 0.000000 26.061493 0.000000
							}
						}
						JOINT HairLeftF
						{
							OFFSET 11.204300 4.953598 -9.668100
							CHANNELS 3 Xrotation Yrotation Zrotation
							End Site
							{
								OFFSET 0.000000 26.061493 0.000000
							}
						}
						JOINT HairRightA
						{
							OFFSET -14.397900 25.746307 2.615100
							CHANNELS 3 Xrotation Yrotation Zrotation
							End Site
							{
								OFFSET 0.000000 26.061493 0.000000
							}
						}
						JOINT HairRightB
						{
							OFFSET -11.691200 29.289200 -8.738199
							CHANNELS 3 Xrotation Yrotation Zrotation
							End Site
							{
								OFFSET 0.000000 26.061493 0.000000
							}
						}
						JOINT HairRightC
						{
							OFFSET -14.792900 15.959702 2.901400
							CHANNELS 3 Xrotation Yrotation Zrotation
							End Site
							{
								OFFSET 0.000000 26.061493 0.000000
							}
						}
						JOINT HairRightD
						{
							OFFSET -15.174000 18.437195 -7.561900
							CHANNELS 3 Xrotation Yrotation Zrotation
							End Site
							{
								OFFSET 0.000000 26.061493 0.000000
							}
						}
						JOINT HairRightE
						{
							OFFSET -8.798200 17.914902 -18.322001
							CHANNELS 3 Xrotation Yrotation Zrotation
							End Site
							{
								OFFSET 0.000000 26.061493 0.000000
							}
						}
						JOINT HairRightF
						{
							OFFSET -10.275200 4.953506 -9.674099
							CHANNELS 3 Xrotation Yrotation Zrotation
							End Site
							{
								OFFSET 0.000000 26.061493 0.000000
							}
						}
					}
				}
				JOINT LeftShoulder
				{
					OFFSET 5.133500 7.341202 -1.867600
					CHANNELS 3 Xrotation Yrotation Zrotation
					JOINT LeftArm
					{
						OFFSET 8.072663 0.936867 -2.176600
						CHANNELS 3 Xrotation Yrotation Zrotation
						JOINT LeftForeArm
						{
							OFFSET 31.271999 0.000000 0.000000
							CHANNELS 3 Xrotation Yrotation Zrotation
							JOINT LeftHand
							{
								OFFSET 31.771030 0.000000 0.000000
								CHANNELS 3 Xrotation Yrotation Zrotation
								JOINT LeftHandThumb1
								{
									OFFSET 2.886520 -2.557846 4.416640
									CHANNELS 3 Xrotation Yrotation Zrotation
									JOINT LeftHandThumb2
									{
										OFFSET 2.371025 -1.368912 1.368911
										CHANNELS 3 Xrotation Yrotation Zrotation
										JOINT LeftHandThumb3
										{
											OFFSET 2.243378 -1.295212 1.295213
											CHANNELS 3 Xrotation Yrotation Zrotation
											End Site
											{
												OFFSET -0.332611 2.876945 0.020015
											}
										}
									}
								}
								JOINT LeftHandIndex1
								{
									OFFSET 8.568985 -0.641945 3.119977
									CHANNELS 3 Xrotation Yrotation Zrotation
									JOINT LeftHandIndex2
									{
										OFFSET 3.348503 0.000000 0.000000
										CHANNELS 3 Xrotation Yrotation Zrotation
										JOINT LeftHandIndex3
										{
											OFFSET 3.314552 0.000000 0.000000
											CHANNELS 3 Xrotation Yrotation Zrotation
											End Site
											{
												OFFSET -1.032898 3.075485 0.678796
											}
										}
									}
								}
								JOINT LeftHandMiddle1
								{
									OFFSET 8.124603 0.000000 0.000000
									CHANNELS 3 Xrotation Yrotation Zrotation
									JOINT LeftHandMiddle2
									{
										OFFSET 4.166275 0.000000 0.000000
										CHANNELS 3 Xrotation Yrotation Zrotation
										JOINT LeftHandMiddle3
										{
											OFFSET 3.018135 0.000000 0.000000
											CHANNELS 3 Xrotation Yrotation Zrotation
											End Site
											{
												OFFSET -1.032700 2.767982 0.617226
											}
										}
									}
								}
								JOINT LeftHandRing1
								{
									OFFSET 8.571686 -0.031357 -2.884048
									CHANNELS 3 Xrotation Yrotation Zrotation
									JOINT LeftHandRing2
									{
										OFFSET 3.671181 0.000000 0.000000
										CHANNELS 3 Xrotation Yrotation Zrotation
										JOINT LeftHandRing3
										{
											OFFSET 2.728851 0.000000 0.000000
											CHANNELS 3 Xrotation Yrotation Zrotation
											End Site
											{
												OFFSET -0.815796 2.539223 0.577389
											}
										}
									}
								}
								JOINT LeftHandPinky1
								{
									OFFSET 7.854515 -0.675232 -5.213020
									CHANNELS 3 Xrotation Yrotation Zrotation
									JOINT LeftHandPinky2
									{
										OFFSET 3.068596 0.000000 0.000000
										CHANNELS 3 Xrotation Yrotation Zrotation
										JOINT LeftHandPinky3
										{
											OFFSET 2.396042 0.000000 0.000000
											CHANNELS 3 Xrotation Yrotation Zrotation
											End Site
											{
												OFFSET -0.524597 2.267998 0.567429
											}
										}
									}
								}
							}
							JOINT LeftSleeve
							{
								OFFSET 19.684509 -0.200119 0.476146
								CHANNELS 3 Xrotation Yrotation Zrotation
								End Site
								{
									OFFSET -0.031017 25.731133 -0.002868
								}
							}
						}
					}
				}
				JOINT RightShoulder
				{
					OFFSET -4.395900 7.341202 -1.870200
					CHANNELS 3 Xrotation Yrotation Zrotation
					JOINT RightArm
					{
						OFFSET -8.071453 0.936867 -2.181100
						CHANNELS 3 Xrotation Yrotation Zrotation
						JOINT RightForeArm
						{
							OFFSET -31.272011 0.000000 0.000000
							CHANNELS 3 Xrotation Yrotation Zrotation
							JOINT RightHand
							{
								OFFSET -31.771019 0.000000 0.000000
								CHANNELS 3 Xrotation Yrotation Zrotation
								JOINT RightHandThumb1
								{
									OFFSET -2.886520 -2.557808 4.416626
									CHANNELS 3 Xrotation Yrotation Zrotation
									JOINT RightHandThumb2
									{
										OFFSET -2.371056 -1.368927 1.368928
										CHANNELS 3 Xrotation Yrotation Zrotation
										JOINT RightHandThumb3
										{
											OFFSET -2.243362 -1.295204 1.295206
											CHANNELS 3 Xrotation Yrotation Zrotation
											End Site
											{
												OFFSET 0.332642 2.876938 0.020047
											}
										}
									}
								}
								JOINT RightHandIndex1
								{
									OFFSET -8.568993 -0.641953 3.120017
									CHANNELS 3 Xrotation Yrotation Zrotation
									JOINT RightHandIndex2
									{
										OFFSET -3.348518 0.000000 0.000000
										CHANNELS 3 Xrotation Yrotation Zrotation
										JOINT RightHandIndex3
										{
											OFFSET -3.314552 0.000000 0.000000
											CHANNELS 3 Xrotation Yrotation Zrotation
											End Site
											{
												OFFSET 1.032898 3.075478 0.678804
											}
										}
									}
								}
								JOINT RightHandMiddle1
								{
									OFFSET -8.124588 0.000000 0.000000
									CHANNELS 3 Xrotation Yrotation Zrotation
									JOINT RightHandMiddle2
									{
										OFFSET -4.166275 0.000000 0.000000
										CHANNELS 3 Xrotation Yrotation Zrotation
										JOINT RightHandMiddle3
										{
											OFFSET -3.018097 0.000000 0.000000
											CHANNELS 3 Xrotation Yrotation Zrotation
											End Site
											{
												OFFSET 1.032700 2.767937 0.617197
											}
										}
									}
								}
								JOINT RightHandRing1
								{
									OFFSET -8.571747 -0.031349 -2.884061
									CHANNELS 3 Xrotation Yrotation Zrotation
									JOINT RightHandRing2
									{
										OFFSET -3.671204 0.000000 0.000000
										CHANNELS 3 Xrotation Yrotation Zrotation
										JOINT RightHandRing3
										{
											OFFSET -2.728874 0.000000 0.000000
											CHANNELS 3 Xrotation Yrotation Zrotation
											End Site
											{
												OFFSET 0.815804 2.539261 0.577413
											}
										}
									}
								}
								JOINT RightHandPinky1
								{
									OFFSET -7.854561 -0.675247 -5.212970
									CHANNELS 3 Xrotation Yrotation Zrotation
									JOINT RightHandPinky2
									{
										OFFSET -3.068550 0.000000 0.000000
										CHANNELS 3 Xrotation Yrotation Zrotation
										JOINT RightHandPinky3
										{
											OFFSET -2.395981 0.000000 0.000000
											CHANNELS 3 Xrotation Yrotation Zrotation
											End Site
											{
												OFFSET 0.524605 2.267952 0.567413
											}
										}
									}
								}
							}
							JOINT RightSleeve
							{
								OFFSET -19.684753 -0.200165 0.476065
								CHANNELS 3 Xrotation Yrotation Zrotation
								End Site
								{
									OFFSET 0.031342 25.731255 -0.002917
								}
							}
						}
					}
				}
				JOINT Hood
				{
					OFFSET 0.369700 14.447800 -5.317800
					CHANNELS 3 Xrotation Yrotation Zrotation
					JOINT Hood1
					{
						OFFSET 0.001700 -5.553802 -5.895100
						CHANNELS 3 Xrotation Yrotation Zrotation
						JOINT Hood2
						{
							OFFSET -0.000200 -8.380501 0.763600
							CHANNELS 3 Xrotation Yrotation Zrotation
							End Site
							{
								OFFSET 0.000000 8.415215 0.000000
							}
						}
					}
				}
				JOINT Left_Breast
				{
					OFFSET 5.682500 3.120102 3.188800
					CHANNELS 3 Xrotation Yrotation Zrotation
					End Site
					{
						OFFSET 0.000000 10.528564 0.000000
					}
				}
				JOINT Right_Breast
				{
					OFFSET -4.947600 3.120102 3.185900
					CHANNELS 3 Xrotation Yrotation Zrotation
					End Site
					{
						OFFSET 0.000000 10.528564 0.000000
					}
				}
				JOINT Whistle
				{
					OFFSET 0.368200 11.471298 0.095400
					CHANNELS 3 Xrotation Yrotation Zrotation
					JOINT Whistle1
					{
						OFFSET -0.002000 -6.349899 7.479800
						CHANNELS 3 Xrotation Yrotation Zrotation
						JOINT Whistle2
						{
							OFFSET -0.001300 -8.217598 4.717600
							CHANNELS 3 Xrotation Yrotation Zrotation
							End Site
							{
								OFFSET 0.000000 9.475479 0.000000
							}
						}
					}
				}
			}
		}
		JOINT Belly
		{
			OFFSET 0.212400 1.593002 3.163700
			CHANNELS 3 Xrotation Yrotation Zrotation
			End Site
			{
				OFFSET 0.000000 7.496635 0.000000
			}
		}
	}
	JOINT FitGrandmaFacialAnim_Joint
	{
		OFFSET 1.150000 -86.211197 -1.220100
		CHANNELS 3 Xrotation Yrotation Zrotation
		End Site
		{
			OFFSET 0.000000 31.666618 0.000000
		}
	}
}
MOTION
Frames: 4
Frame Time: 0.016667
-1.169375 77.420303 0.376431 -4.050749 -61.108562 -2.275419 -0.000000 0.000000 -0.000000 -29.929923 12.548647 30.074231 44.808838 -10.498013 -10.301981 -14.397726 -2.472185 -8.260670 -0.000000 0.000001 0.000000 0.000001 0.000003 -0.000001 -0.000003 -0.000003 0.000000 -26.184034 -10.048555 -23.339345 48.325754 3.806350 -7.555048 -22.874522 3.463121 20.860451 0.000000 -0.000001 -0.000000 -0.000001 0.000000 0.000001 0.000002 0.000001 -0.000001 10.530284 0.410996 -1.691869 7.138507 0.481502 -4.840611 7.341881 0.512808 -4.809182 -23.259405 25.805460 11.809879 -6.291530 25.717208 -2.641170 0.000000 -0.000000 0.000000 0.000000 -0.000000 0.000000 0.000000 -0.000000 0.000000 0.000000 -0.000000 0.000000 0.000000 -0.000000 0.000000 0.000000 -0.000000 0.000000 0.000000 -0.000000 0.000000 0.000000 -0.000000 0.000000 0.000000 -0.000000 0.000000 0.000000 -0.000000 0.000000 0.000000 -0.000000 0.000000 0.000000 -0.000000 0.000000 0.000000 -0.000000 0.000000 0.000000 -0.000000 0.000000 0.000000 -0.000000 0.000000 0.000000 -0.000000 0.000000 0.000000 -0.000000 0.000000 0.000000 -0.000000 0.000000 0.000000 -0.000000 0.000000 -6.367304 -10.788149 -3.787807 -21.873385 6.546965 -38.737442 3.298281 -47.813633 1.501508 23.526235 -7.456324 15.579788 -1.744012 -11.605052 7.087506 1.175756 16.638472 -3.372742 -0.000001 0.000002 -0.000000 13.261892 -0.994753 14.608072 -0.163793 0.326153 -27.178253 0.000002 -0.000001 -0.000002 8.530532 -0.377316 3.011984 0.228021 0.647980 -25.974485 -0.000002 0.000001 -0.000001 6.138288 3.128096 -12.283905 0.030968 0.295640 -26.198147 -0.000002 0.000001 0.000001 -5.593243 7.672126 -9.955788 0.209703 0.277168 -42.660945 -0.000000 -0.000002 0.000001 0.000001 -0.000002 0.000001 -5.546721 11.668537 2.442836 -42.804635 -24.538223 26.405984 34.764263 107.847280 -33.401435 -11.227970 18.802017 -0.896785 -0.426184 14.756533 -9.085188 -0.217035 -13.162701 4.783224 0.000001 -0.000001 -0.000002 19.387700 11.163738 -18.356915 -0.122753 -0.303407 13.011841 -0.000001 0.000001 -0.000000 4.365707 2.482333 -9.836883 0.357454 -0.462558 21.866692 0.000001 0.000001 -0.000003 -6.967552 -10.645239 0.698113 0.113406 -0.065242 21.132226 0.000000 -0.000002 0.000001 -19.392966 -20.193014 0.968372 0.222125 -0.061963 31.820899 -0.000003 -0.000001 -0.000004 0.000002 -0.000004 0.000002 0.000001 0.000002 0.000001 0.000001 0.000002 0.000001 0.000001 0.000002 0.000001 0.000001 0.000002 0.000001 0.000001 0.000002 0.000001 0.000001 0.000002 0.000002 -0.000000 0.000001 0.000000 -0.000000 0.000001 0.000000 -0.000000 -0.000000 0.000000 -0.000000 0.000000 -0.000000 
-1.210190 77.454826 0.365682 -3.887945 -60.887844 -1.892750 -0.000000 0.000003 0.000000 -29.651217 12.225915 29.463462 44.567640 -10.042216 -10.207349 -14.287167 -2.449320 -8.458596 -0.000000 -0.000003 0.000000 -0.000000 -0.000000 0.000001 -0.000001 -0.000002 0.000001 -26.280924 -10.179096 -23.691039 48.374128 3.927835 -7.551611 -22.952366 3.380223 20.825887 -0.000000 0.000002 -0.000000 0.000000 0.000000 -0.000002 -0.000001 0.000000 -0.000002 10.590698 0.409797 -1.624508 7.257249 0.468897 -4.778351 7.460059 0.466601 -4.741545 -22.867977 25.805334 11.676784 -5.777270 25.649959 -2.782641 -0.000000 0.000000 -0.000000 -0.000000 0.000000 -0.000000 -0.000000 0.000000 -0.000000 -0.000000 0.000000 -0.000000 -0.000000 0.000000 -0.000000 -0.000000 0.000000 -0.000000 -0.000000 0.000000 -0.000000 -0.000000 0.000000 -0.000000 -0.000000 0.000000 -0.000000 -0.000000 0.000000 -0.000000 -0.000000 0.000000 -0.000000 -0.000000 0.000000 -0.000000 -0.000000 0.000000 -0.000000 -0.000000 0.000000 -0.000000 -0.000000 0.000000 -0.000000 -0.000000 0.000000 -0.000000 -0.000000 0.000000 -0.000000 -0.000000 0.000000 -0.000000 -0.000000 0.000000 -0.000000 -6.418697 -10.815720 -4.148095 -21.457114 6.690793 -38.715090 4.406690 -47.475637 2.146113 23.256355 -7.467398 15.380468 -1.783036 -11.815738 7.005573 1.104977 16.445747 -3.450755 -0.000001 0.000002 -0.000002 13.259810 -0.994073 14.834551 -0.164109 0.325758 -26.951609 -0.000001 -0.000001 0.000000 8.532564 -0.380222 3.238585 0.227730 0.647152 -25.747844 0.000003 -0.000002 -0.000006 6.140714 3.125706 -12.057604 0.030061 0.294131 -25.971501 0.000002 -0.000002 -0.000000 -5.598560 7.673627 -9.728864 0.208884 0.276888 -42.434244 -0.000001 -0.000004 0.000005 0.000001 -0.000001 -0.000000 -5.573478 11.590784 2.601375 -43.195165 -24.472052 26.216964 33.970188 108.583035 -32.512240 -11.201326 19.600877 -1.776053 -0.422794 14.740474 -9.092038 -0.211416 -13.177341 4.776899 -0.000001 0.000002 0.000001 19.389056 11.163729 -18.339756 -0.122758 -0.303273 13.029344 0.000000 0.000002 -0.000000 4.365201 2.482191 -9.819364 0.357985 -0.462926 21.884160 0.000001 -0.000000 -0.000002 -6.967646 -10.645374 0.715580 0.113415 -0.065619 21.149676 0.000001 -0.000001 0.000006 -19.395270 -20.194277 0.984111 0.222211 -0.062345 31.838476 -0.000001 0.000001 -0.000002 0.000001 -0.000004 0.000003 0.000003 0.000001 -0.000000 0.000003 0.000001 -0.000000 0.000003 0.000001 -0.000000 0.000003 0.000001 -0.000000 0.000003 0.000001 -0.000000 0.000002 0.000001 -0.000001 0.000001 0.000000 0.000000 0.000001 0.000000 0.000000 0.000000 0.000000 0.000000 -0.000000 0.000003 0.000000 
-1.260509 77.489532 0.364617 -3.684778 -60.630578 -1.506589 0.000000 0.000002 -0.000000 -29.416791 11.868861 28.887015 44.335888 -9.617537 -10.118804 -14.178622 -2.428321 -8.644742 -0.000000 0.000001 -0.000000 -0.000001 0.000000 0.000000 -0.000002 -0.000001 -0.000001 -26.363425 -10.343880 -24.049656 48.546656 5.175167 -7.485357 -23.012301 2.270322 20.316048 -0.000000 0.000001 0.000000 -0.000000 -0.000003 -0.000004 -0.000001 0.000002 -0.000001 10.639628 0.404054 -1.578310 7.369343 0.453071 -4.726277 7.573431 0.423509 -4.679432 -22.543796 25.796373 11.622071 -5.275323 25.598644 -2.912716 -0.000000 0.000001 -0.000000 -0.000000 0.000001 -0.000000 -0.000000 0.000001 -0.000000 -0.000000 0.000001 -0.000000 -0.000000 0.000001 -0.000000 -0.000000 0.000001 -0.000000 -0.000000 0.000001 -0.000000 -0.000000 0.000001 -0.000000 -0.000000 0.000001 -0.000000 -0.000000 0.000001 -0.000000 -0.000000 0.000001 -0.000000 -0.000000 0.000001 -0.000000 -0.000000 0.000001 -0.000000 -0.000000 0.000001 -0.000000 -0.000000 0.000001 -0.000000 -0.000000 0.000001 -0.000000 -0.000000 0.000001 -0.000000 -0.000000 0.000001 -0.000000 -0.000000 0.000001 -0.000000 -6.440485 -10.884630 -4.337061 -21.175186 6.913540 -38.724973 5.577256 -47.056667 2.897942 23.026043 -7.470493 15.124214 -1.779700 -11.806522 7.009865 1.107501 16.455731 -3.449355 0.000003 0.000002 0.000001 13.258850 -0.994108 14.824113 -0.164110 0.325375 -26.962010 0.000000 -0.000002 -0.000002 8.531222 -0.380743 3.228207 0.228451 0.647208 -25.758214 0.000001 -0.000000 -0.000001 6.140627 3.125780 -12.067781 0.029529 0.294153 -25.981877 0.000000 -0.000002 -0.000000 -5.601406 7.673595 -9.738871 0.208911 0.277396 -42.444667 -0.000004 0.000000 0.000000 0.000000 -0.000001 0.000004 -5.599828 11.504897 2.762666 -43.512741 -24.472595 26.085473 33.347302 109.244539 -31.801156 -11.146641 20.342334 -2.590661 -0.415625 14.692879 -9.110306 -0.194285 -13.219776 4.757872 0.000000 -0.000003 -0.000000 19.390116 11.163728 -18.289160 -0.122711 -0.303311 13.080231 -0.000003 0.000001 0.000003 4.364106 2.481780 -9.768451 0.358307 -0.463216 21.935047 -0.000001 -0.000001 0.000000 -6.968124 -10.645739 0.766205 0.113360 -0.065990 21.200564 0.000002 0.000000 -0.000002 -19.396679 -20.195433 1.033495 0.222221 -0.062845 31.889289 -0.000002 -0.000002 -0.000001 0.000000 0.000000 0.000001 -0.000000 0.000002 -0.000000 -0.000000 0.000002 -0.000000 -0.000000 0.000002 -0.000000 -0.000000 0.000002 -0.000000 -0.000000 0.000002 -0.000000 -0.000000 0.000002 0.000001 -0.000000 -0.000001 -0.000001 -0.000000 -0.000001 -0.000001 0.000000 0.000000 -0.000000 0.000000 0.000002 -0.000000 
-1.323447 77.518135 0.372813 -3.395122 -60.377998 -1.077764 0.000000 -0.000000 -0.000000 -29.265103 11.523228 28.380664 44.131324 -9.246036 -10.041558 -14.085504 -2.409388 -8.812812 0.000000 0.000001 -0.000000 0.000001 0.000002 -0.000001 -0.000003 -0.000003 0.000000 -26.473388 -10.528659 -24.339731 48.552181 5.198521 -7.485635 -23.102027 2.252686 20.319989 0.000000 0.000000 0.000000 -0.000000 0.000000 -0.000003 0.000000 0.000001 -0.000002 10.688166 0.394395 -1.555107 7.474952 0.433636 -4.690573 7.681314 0.379664 -4.629600 -22.293819 25.770336 11.684732 -4.788366 25.569010 -3.031155 -0.000000 -0.000001 0.000000 -0.000000 -0.000001 0.000000 -0.000000 -0.000001 0.000000 -0.000000 -0.000001 0.000000 -0.000000 -0.000001 0.000000 -0.000000 -0.000001 0.000000 -0.000000 -0.000001 0.000000 -0.000000 -0.000001 0.000000 -0.000000 -0.000001 0.000000 -0.000000 -0.000001 0.000000 -0.000000 -0.000001 0.000000 -0.000000 -0.000001 0.000000 -0.000000 -0.000001 0.000000 -0.000000 -0.000001 0.000000 -0.000000 -0.000001 0.000000 -0.000000 -0.000001 0.000000 -0.000000 -0.000001 0.000000 -0.000000 -0.000001 0.000000 -0.000000 -0.000001 0.000000 -6.435435 -10.967003 -4.381022 -20.957483 7.136075 -38.771029 6.404517 -46.581303 3.444879 22.835392 -7.451237 14.856013 -1.773518 -11.778455 7.021338 1.117315 16.481803 -3.439130 -0.000001 -0.000001 -0.000000 13.258209 -0.994207 14.793625 -0.164053 0.325092 -26.992460 0.000000 -0.000002 -0.000002 8.530099 -0.380799 3.197768 0.228937 0.647358 -25.788704 -0.000001 -0.000001 -0.000003 6.140288 3.126128 -12.098265 0.029278 0.294326 -26.012331 0.000001 -0.000002 -0.000000 -5.601576 7.673754 -9.769264 0.209016 0.278130 -42.475136 -0.000001 -0.000002 0.000001 0.000001 0.000000 0.000001 -5.626214 11.414995 2.928155 -43.757279 -24.499854 25.977060 33.032263 109.869562 -31.394743 -11.032525 21.015223 -3.371323 -0.404249 14.616207 -9.139756 -0.167441 -13.288510 4.728263 -0.000001 0.000003 -0.000002 19.390963 11.163726 -18.207654 -0.122634 -0.303401 13.161986 0.000001 -0.000001 0.000001 4.362486 2.481069 -9.686599 0.358537 -0.463439 22.016879 -0.000002 0.000001 -0.000001 -6.968844 -10.646383 0.847657 0.113328 -0.066684 21.282335 -0.000001 0.000001 -0.000006 -19.397993 -20.196379 1.113734 0.222313 -0.063543 31.971047 -0.000003 0.000000 -0.000003 -0.000001 -0.000004 0.000004 0.000001 -0.000000 -0.000001 0.000001 -0.000000 -0.000001 0.000001 -0.000000 -0.000001 0.000001 -0.000000 -0.000001 0.000001 -0.000000 -0.000001 0.000001 -0.000000 -0.000001 -0.000002 -0.000000 -0.000001 -0.000002 -0.000000 -0.000001 0.000000 -0.000001 0.000000 0.000000 -0.000000 -0.000000 
